<?xml version="1.0" encoding="utf-8"?>
<!-- Generator: Adobe Illustrator 22.0.1, SVG Export Plug-In . SVG Version: 6.00 Build 0)  -->
<svg version="1.1" id="Layer_1" xmlns="http://www.w3.org/2000/svg" xmlns:xlink="http://www.w3.org/1999/xlink" x="0px" y="0px"
	 viewBox="0 0 50 50" style="enable-background:new 0 0 50 50;" xml:space="preserve">
<style type="text/css">
	.st0{fill:none;stroke:#000000;stroke-miterlimit:10;}
</style>
<g>
	<path d="M13.8,35.6c0.5,0.3,0.8,0.7,0.9,1.4h-0.7c-0.1-0.4-0.3-0.6-0.5-0.8c-0.3-0.2-0.6-0.3-1-0.3c-0.5,0-0.9,0.2-1.2,0.5
		c-0.3,0.4-0.5,0.9-0.5,1.6c0,0.6,0.1,1.1,0.4,1.5c0.3,0.4,0.7,0.6,1.3,0.6c0.5,0,0.8-0.1,1.1-0.4s0.5-0.7,0.5-1.3h-1.6v-0.6h2.3
		v2.8h-0.4l-0.2-0.7c-0.2,0.3-0.4,0.4-0.6,0.5c-0.3,0.2-0.7,0.3-1.1,0.3c-0.6,0-1.1-0.2-1.5-0.6c-0.5-0.5-0.7-1.2-0.7-2
		c0-0.9,0.2-1.5,0.7-2.1c0.4-0.5,1-0.7,1.7-0.7C13.1,35.3,13.5,35.4,13.8,35.6z"/>
	<path d="M16.1,35.4h2.3c0.4,0,0.7,0.1,1,0.2c0.5,0.2,0.7,0.6,0.7,1.2c0,0.3-0.1,0.6-0.2,0.8c-0.1,0.2-0.3,0.4-0.5,0.5
		c0.2,0.1,0.4,0.2,0.5,0.3c0.1,0.1,0.2,0.3,0.2,0.6l0,0.7c0,0.2,0,0.3,0,0.4c0,0.2,0.1,0.3,0.2,0.3v0.1h-0.9c0,0,0-0.1-0.1-0.2
		c0-0.1,0-0.2,0-0.4l0-0.9c0-0.3-0.1-0.6-0.4-0.7c-0.1-0.1-0.3-0.1-0.6-0.1h-1.5v2.2h-0.7V35.4z M18.3,37.8c0.3,0,0.6-0.1,0.8-0.2
		c0.2-0.1,0.3-0.4,0.3-0.7c0-0.4-0.1-0.6-0.4-0.7C18.8,36,18.6,36,18.4,36h-1.7v1.8H18.3z"/>
	<path d="M25.4,36.1c0.3,0.5,0.5,1,0.5,1.7c0,0.8-0.2,1.4-0.6,1.9c-0.5,0.6-1.1,0.9-2,0.9c-0.8,0-1.4-0.3-1.9-0.8
		c-0.4-0.5-0.6-1.1-0.6-1.9c0-0.7,0.2-1.3,0.5-1.8c0.4-0.6,1.1-1,2-1C24.3,35.3,25,35.6,25.4,36.1z M24.8,39.4
		c0.3-0.4,0.4-0.9,0.4-1.5c0-0.6-0.2-1.1-0.5-1.5s-0.7-0.6-1.3-0.6c-0.5,0-1,0.2-1.3,0.5c-0.3,0.4-0.5,0.9-0.5,1.6
		c0,0.6,0.1,1.1,0.4,1.4c0.3,0.4,0.8,0.6,1.4,0.6C24.1,40.1,24.5,39.9,24.8,39.4z"/>
	<path d="M27.5,35.4v3.2c0,0.4,0.1,0.7,0.2,0.9c0.2,0.4,0.6,0.6,1.1,0.6c0.6,0,1-0.2,1.2-0.6c0.1-0.2,0.2-0.5,0.2-0.9v-3.2h0.7v2.9
		c0,0.6-0.1,1.1-0.3,1.5c-0.3,0.6-0.9,0.9-1.8,0.9c-0.9,0-1.5-0.3-1.8-0.9c-0.2-0.3-0.3-0.8-0.3-1.5v-2.9H27.5z"/>
	<path d="M31.9,35.4h0.8l2.6,4.2v-4.2H36v5.1h-0.8l-2.6-4.2v4.2h-0.7V35.4z"/>
	<path d="M37.1,35.4h2.1c0.7,0,1.2,0.3,1.6,0.8c0.3,0.5,0.5,1,0.5,1.7c0,0.5-0.1,1-0.3,1.5c-0.4,0.8-1,1.2-1.8,1.2h-2V35.4z M39,40
		c0.2,0,0.4,0,0.6-0.1c0.3-0.1,0.5-0.3,0.7-0.5c0.1-0.2,0.2-0.5,0.3-0.8c0-0.2,0.1-0.4,0.1-0.5c0-0.6-0.1-1.1-0.4-1.5
		C40,36.2,39.6,36,39,36h-1.2V40H39z"/>
</g>
<g>
	<g>
		<line class="st0" x1="14.5" y1="19.5" x2="34.5" y2="19.5"/>
	</g>
	<g>
		<line class="st0" x1="16.5" y1="22.5" x2="32.5" y2="22.5"/>
	</g>
	<g>
		<line class="st0" x1="18.5" y1="25.5" x2="30.5" y2="25.5"/>
	</g>
	<line class="st0" x1="24.5" y1="19.5" x2="24.5" y2="9.5"/>
</g>
</svg>
