<?xml version="1.0" encoding="utf-8"?>
<!-- Generator: Adobe Illustrator 22.0.1, SVG Export Plug-In . SVG Version: 6.00 Build 0)  -->
<svg version="1.1" id="Layer_1" xmlns="http://www.w3.org/2000/svg" xmlns:xlink="http://www.w3.org/1999/xlink" x="0px" y="0px"
	 viewBox="0 0 50 50" style="enable-background:new 0 0 50 50;" xml:space="preserve">
<g transform="translate(0,-952.36218)">
	<path d="M25,954.4l-0.4,0.4l-6.4,6.4l0.8,0.7l5.4-5.4v20.4H4.1l5.4-5.5l-0.8-0.7L2.4,977L2,977.4l0.4,0.4l6.4,6.4l0.8-0.7l-5.4-5.4
		h20.4v20.4l-5.4-5.4l-0.8,0.7l6.4,6.4l0.4,0.4l0.4-0.4l6.4-6.4l-0.8-0.7l-5.4,5.4v-20.4H46l-5.4,5.4l0.8,0.7l6.4-6.4l0.4-0.4
		l-0.4-0.4l-6.4-6.4l-0.8,0.7l5.4,5.5H25.6v-20.4l5.4,5.4l0.8-0.7l-6.4-6.4L25,954.4z"/>
</g>
</svg>
