<?xml version="1.0" encoding="utf-8"?>
<!-- Generator: Adobe Illustrator 22.0.1, SVG Export Plug-In . SVG Version: 6.00 Build 0)  -->
<svg version="1.1" id="Layer_1" xmlns="http://www.w3.org/2000/svg" xmlns:xlink="http://www.w3.org/1999/xlink" x="0px" y="0px"
	 viewBox="0 0 50 50" style="enable-background:new 0 0 50 50;" xml:space="preserve">
<path d="M38.5,7.4c-0.7,0-1.3,0.1-1.9,0.3C36,5.6,34,4,31.7,4c-1.3,0-2.5,0.5-3.4,1.3C27.3,4.4,26.1,4,24.8,4c-2.4,0-4.4,1.6-5,3.8
	c-0.6-0.3-1.2-0.3-1.9-0.3c-2.8,0-5.1,2.3-5.1,5.1v5.4c-0.5-0.2-1.1-0.3-1.7-0.3C8.3,17.7,6,20,6,22.8v1.7v6.8
	c0,4.4,2.8,8.3,6.8,9.7v0.6c0,1.9,1.5,3.4,3.4,3.4h20.5c1.9,0,3.4-1.5,3.4-3.4v-0.9c2.1-1.2,3.4-3.4,3.4-5.9V12.6
	C43.6,9.7,41.3,7.4,38.5,7.4z M40.2,34.8c0,1.9-1.5,3.4-3.4,3.4v3.4H16.3v-3.4c-3.8,0-6.8-3.1-6.8-6.8v-6.8v-1.7
	c0-0.9,0.8-1.7,1.7-1.7s1.7,0.8,1.7,1.7v5.1c0,0.9,0.8,1.7,1.7,1.7c0.9,0,1.7-0.8,1.7-1.7V12.6c0-0.9,0.8-1.7,1.7-1.7
	c0.9,0,1.7,0.8,1.7,1.7v8.6c0,0.9,0.8,1.7,1.7,1.7c0.9,0,1.7-0.8,1.7-1.7v-12c0-0.9,0.8-1.7,1.7-1.7s1.7,0.8,1.7,1.7v12
	c0,0.9,0.8,1.7,1.7,1.7c0.9,0,1.7-0.8,1.7-1.7v-12c0-0.9,0.8-1.7,1.7-1.7c0.9,0,1.7,0.8,1.7,1.7v12c0,0.9,0.8,1.7,1.7,1.7
	s1.7-0.8,1.7-1.7v-8.6c0-0.9,0.8-1.7,1.7-1.7c0.9,0,1.7,0.8,1.7,1.7V34.8z"/>
</svg>
