<?xml version="1.0" encoding="utf-8"?>
<!-- Generator: Adobe Illustrator 22.0.1, SVG Export Plug-In . SVG Version: 6.00 Build 0)  -->
<svg version="1.1" id="Layer_1" xmlns="http://www.w3.org/2000/svg" xmlns:xlink="http://www.w3.org/1999/xlink" x="0px" y="0px"
	 viewBox="0 0 50 50" style="enable-background:new 0 0 50 50;" xml:space="preserve">
<path d="M41.5,2.1c-0.1,0-0.2,0-0.3,0c-0.1,0-0.2,0-0.3,0H8.7c-0.1,0-0.2,0-0.3,0c-0.1,0-0.2,0-0.3,0c-2.1,0-3.8,1.7-3.8,3.8v6.1
	c0,2.1,1.7,3.8,3.8,3.8s3.8-1.7,3.8-3.8V9.6h9.2v30.8h-3.8c-2.1,0-3.8,1.7-3.8,3.8c0,2.1,1.7,3.8,3.8,3.8h7.6c0,0,0,0,0,0s0,0,0,0
	h7.6c2.1,0,3.8-1.7,3.8-3.8c0-2.1-1.7-3.8-3.8-3.8h-3.8V9.6h9v2.3c0,2.1,1.7,3.8,3.8,3.8s3.8-1.7,3.8-3.8V5.9
	C45.3,3.8,43.6,2.1,41.5,2.1z"/>
</svg>
