<?xml version="1.0" encoding="utf-8"?>
<!-- Generator: Adobe Illustrator 22.0.1, SVG Export Plug-In . SVG Version: 6.00 Build 0)  -->
<svg version="1.1" id="Layer_1" xmlns="http://www.w3.org/2000/svg" xmlns:xlink="http://www.w3.org/1999/xlink" x="0px" y="0px"
	 viewBox="0 0 100 100" style="enable-background:new 0 0 100 100;" xml:space="preserve">
<style type="text/css">
	.st0{fill:none;stroke:#000000;stroke-miterlimit:10;}
</style>
<g>
	<g>
		<path d="M52,19c11,0,20,9,20,20s-9,20-20,20s-20-9-20-20S41,19,52,19 M52,18c-11.6,0-21,9.4-21,21s9.4,21,21,21s21-9.4,21-21
			S63.6,18,52,18L52,18z"/>
	</g>
	<g>
		<path d="M52,40c11,0,20,9,20,20s-9,20-20,20s-20-9-20-20S41,40,52,40 M52,39c-11.6,0-21,9.4-21,21s9.4,21,21,21s21-9.4,21-21
			S63.6,39,52,39L52,39z"/>
	</g>
	<line id="txline2" class="st0" x1="51.5" y1="4.5" x2="51.5" y2="18.5"/>
	<line id="txline1" class="st0" x1="51.5" y1="80" x2="51.5" y2="94"/>
	<rect x="51.5" y="4.4" class="st0" width="0.1" height="0.1"/>
	<rect x="51.5" y="94.4" class="st0" width="0.1" height="0.1"/>
</g>
</svg>
